<svg xmlns="http://www.w3.org/2000/svg" version="1.1" xmlns:xlink="http://www.w3.org/1999/xlink" xmlns:svgjs="http://svgjs.com/svgjs" width="1250" height="450" preserveAspectRatio="none" viewBox="0 0 1250 450">
    <g mask="url(&quot;#SvgjsMask1756&quot;)" fill="none">
        <rect width="1250" height="450" x="0" y="0" fill="url(#SvgjsLinearGradient1757)"></rect>
        <path d="M-45.65 359.79L-45.65 359.79" stroke="rgba(27, 196, 10, 0.48)" stroke-width="1.5"></path>
        <path d="M-45.65 359.79L-70.29 490.67" stroke="rgba(27, 196, 10, 0.48)" stroke-width="1.5"></path>
        <path d="M-45.65 359.79L73.37 550.54" stroke="rgba(27, 196, 10, 0.48)" stroke-width="1.5"></path>
        <path d="M-45.65 359.79L213.93 402.65" stroke="rgba(27, 196, 10, 0.48)" stroke-width="1.5"></path>
        <path d="M-45.65 359.79L53.55 661.93" stroke="rgba(27, 196, 10, 0.48)" stroke-width="1.5"></path>
        <path d="M-45.65 359.79L239.19 521.14" stroke="rgba(27, 196, 10, 0.48)" stroke-width="1.5"></path>
        <path d="M-70.29 490.67L-70.29 490.67" stroke="rgba(27, 196, 10, 0.48)" stroke-width="1.5"></path>
        <path d="M-70.29 490.67L73.37 550.54" stroke="rgba(27, 196, 10, 0.48)" stroke-width="1.5"></path>
        <path d="M-70.29 490.67L53.55 661.93" stroke="rgba(27, 196, 10, 0.48)" stroke-width="1.5"></path>
        <path d="M-70.29 490.67L-56.08 711.36" stroke="rgba(27, 196, 10, 0.48)" stroke-width="1.5"></path>
        <path d="M-56.08 711.36L-56.08 711.36" stroke="rgba(27, 196, 10, 0.48)" stroke-width="1.5"></path>
        <path d="M-56.08 711.36L53.55 661.93" stroke="rgba(27, 196, 10, 0.48)" stroke-width="1.5"></path>
        <path d="M73.37 550.54L73.37 550.54" stroke="rgba(27, 196, 10, 0.48)" stroke-width="1.5"></path>
        <path d="M73.37 550.54L53.55 661.93" stroke="rgba(27, 196, 10, 0.48)" stroke-width="1.5"></path>
        <path d="M73.37 550.54L239.19 521.14" stroke="rgba(27, 196, 10, 0.48)" stroke-width="1.5"></path>
        <path d="M53.55 661.93L53.55 661.93" stroke="rgba(27, 196, 10, 0.48)" stroke-width="1.5"></path>
        <path d="M53.55 661.93L222.17 649.53" stroke="rgba(27, 196, 10, 0.48)" stroke-width="1.5"></path>
        <path d="M53.55 661.93L239.19 521.14" stroke="rgba(27, 196, 10, 0.48)" stroke-width="1.5"></path>
        <path d="M53.55 661.93L213.93 402.65" stroke="rgba(27, 196, 10, 0.48)" stroke-width="1.5"></path>
        <path d="M213.93 402.65L213.93 402.65" stroke="rgba(27, 196, 10, 0.48)" stroke-width="1.5"></path>
        <path d="M213.93 402.65L239.19 521.14" stroke="rgba(27, 196, 10, 0.48)" stroke-width="1.5"></path>
        <path d="M213.93 402.65L340.02 360.97" stroke="rgba(27, 196, 10, 0.48)" stroke-width="1.5"></path>
        <path d="M213.93 402.65L355.87 510.06" stroke="rgba(27, 196, 10, 0.48)" stroke-width="1.5"></path>
        <path d="M239.19 521.14L239.19 521.14" stroke="rgba(27, 196, 10, 0.48)" stroke-width="1.5"></path>
        <path d="M239.19 521.14L355.87 510.06" stroke="rgba(27, 196, 10, 0.48)" stroke-width="1.5"></path>
        <path d="M239.19 521.14L222.17 649.53" stroke="rgba(27, 196, 10, 0.48)" stroke-width="1.5"></path>
        <path d="M222.17 649.53L222.17 649.53" stroke="rgba(27, 196, 10, 0.48)" stroke-width="1.5"></path>
        <path d="M340.02 360.97L340.02 360.97" stroke="rgba(27, 196, 10, 0.48)" stroke-width="1.5"></path>
        <path d="M340.02 360.97L355.87 510.06" stroke="rgba(27, 196, 10, 0.48)" stroke-width="1.5"></path>
        <path d="M340.02 360.97L520.5 402.05" stroke="rgba(27, 196, 10, 0.48)" stroke-width="1.5"></path>
        <path d="M340.02 360.97L239.19 521.14" stroke="rgba(27, 196, 10, 0.48)" stroke-width="1.5"></path>
        <path d="M355.87 510.06L355.87 510.06" stroke="rgba(27, 196, 10, 0.48)" stroke-width="1.5"></path>
        <path d="M355.87 510.06L534.14 519.76" stroke="rgba(27, 196, 10, 0.48)" stroke-width="1.5"></path>
        <path d="M355.87 510.06L400 697.26" stroke="rgba(27, 196, 10, 0.48)" stroke-width="1.5"></path>
        <path d="M400 697.26L400 697.26" stroke="rgba(27, 196, 10, 0.48)" stroke-width="1.5"></path>
        <path d="M400 697.26L521.2 671.35" stroke="rgba(27, 196, 10, 0.48)" stroke-width="1.5"></path>
        <path d="M400 697.26L222.17 649.53" stroke="rgba(27, 196, 10, 0.48)" stroke-width="1.5"></path>
        <path d="M520.5 402.05L520.5 402.05" stroke="rgba(27, 196, 10, 0.48)" stroke-width="1.5"></path>
        <path d="M520.5 402.05L534.14 519.76" stroke="rgba(27, 196, 10, 0.48)" stroke-width="1.5"></path>
        <path d="M520.5 402.05L652.01 397.96" stroke="rgba(27, 196, 10, 0.48)" stroke-width="1.5"></path>
        <path d="M520.5 402.05L355.87 510.06" stroke="rgba(27, 196, 10, 0.48)" stroke-width="1.5"></path>
        <path d="M520.5 402.05L677.63 230.71" stroke="rgba(27, 196, 10, 0.48)" stroke-width="1.5"></path>
        <path d="M520.5 402.05L704.75 546" stroke="rgba(27, 196, 10, 0.48)" stroke-width="1.5"></path>
        <path d="M534.14 519.76L534.14 519.76" stroke="rgba(27, 196, 10, 0.48)" stroke-width="1.5"></path>
        <path d="M534.14 519.76L521.2 671.35" stroke="rgba(27, 196, 10, 0.48)" stroke-width="1.5"></path>
        <path d="M534.14 519.76L652.01 397.96" stroke="rgba(27, 196, 10, 0.48)" stroke-width="1.5"></path>
        <path d="M521.2 671.35L521.2 671.35" stroke="rgba(27, 196, 10, 0.48)" stroke-width="1.5"></path>
        <path d="M521.2 671.35L682.25 687.16" stroke="rgba(27, 196, 10, 0.48)" stroke-width="1.5"></path>
        <path d="M521.2 671.35L704.75 546" stroke="rgba(27, 196, 10, 0.48)" stroke-width="1.5"></path>
        <path d="M521.2 671.35L355.87 510.06" stroke="rgba(27, 196, 10, 0.48)" stroke-width="1.5"></path>
        <path d="M521.2 671.35L520.5 402.05" stroke="rgba(27, 196, 10, 0.48)" stroke-width="1.5"></path>
        <path d="M677.63 230.71L677.63 230.71" stroke="rgba(27, 196, 10, 0.48)" stroke-width="1.5"></path>
        <path d="M677.63 230.71L807.63 219.86" stroke="rgba(27, 196, 10, 0.48)" stroke-width="1.5"></path>
        <path d="M677.63 230.71L652.01 397.96" stroke="rgba(27, 196, 10, 0.48)" stroke-width="1.5"></path>
        <path d="M677.63 230.71L843 345.02" stroke="rgba(27, 196, 10, 0.48)" stroke-width="1.5"></path>
        <path d="M677.63 230.71L941.93 207.11" stroke="rgba(27, 196, 10, 0.48)" stroke-width="1.5"></path>
        <path d="M652.01 397.96L652.01 397.96" stroke="rgba(27, 196, 10, 0.48)" stroke-width="1.5"></path>
        <path d="M652.01 397.96L704.75 546" stroke="rgba(27, 196, 10, 0.48)" stroke-width="1.5"></path>
        <path d="M704.75 546L704.75 546" stroke="rgba(27, 196, 10, 0.48)" stroke-width="1.5"></path>
        <path d="M704.75 546L830.91 554.62" stroke="rgba(27, 196, 10, 0.48)" stroke-width="1.5"></path>
        <path d="M704.75 546L682.25 687.16" stroke="rgba(27, 196, 10, 0.48)" stroke-width="1.5"></path>
        <path d="M704.75 546L827.13 643.84" stroke="rgba(27, 196, 10, 0.48)" stroke-width="1.5"></path>
        <path d="M704.75 546L534.14 519.76" stroke="rgba(27, 196, 10, 0.48)" stroke-width="1.5"></path>
        <path d="M682.25 687.16L682.25 687.16" stroke="rgba(27, 196, 10, 0.48)" stroke-width="1.5"></path>
        <path d="M682.25 687.16L827.13 643.84" stroke="rgba(27, 196, 10, 0.48)" stroke-width="1.5"></path>
        <path d="M807.63 219.86L807.63 219.86" stroke="rgba(27, 196, 10, 0.48)" stroke-width="1.5"></path>
        <path d="M807.63 219.86L843 345.02" stroke="rgba(27, 196, 10, 0.48)" stroke-width="1.5"></path>
        <path d="M843 345.02L843 345.02" stroke="rgba(27, 196, 10, 0.48)" stroke-width="1.5"></path>
        <path d="M843 345.02L941.93 207.11" stroke="rgba(27, 196, 10, 0.48)" stroke-width="1.5"></path>
        <path d="M843 345.02L652.01 397.96" stroke="rgba(27, 196, 10, 0.48)" stroke-width="1.5"></path>
        <path d="M843 345.02L830.91 554.62" stroke="rgba(27, 196, 10, 0.48)" stroke-width="1.5"></path>
        <path d="M830.91 554.62L830.91 554.62" stroke="rgba(27, 196, 10, 0.48)" stroke-width="1.5"></path>
        <path d="M830.91 554.62L827.13 643.84" stroke="rgba(27, 196, 10, 0.48)" stroke-width="1.5"></path>
        <path d="M827.13 643.84L827.13 643.84" stroke="rgba(27, 196, 10, 0.48)" stroke-width="1.5"></path>
        <path d="M827.13 643.84L966.24 679.99" stroke="rgba(27, 196, 10, 0.48)" stroke-width="1.5"></path>
        <path d="M963.06 -83.39L963.06 -83.39" stroke="rgba(27, 196, 10, 0.48)" stroke-width="1.5"></path>
        <path d="M963.06 -83.39L1002.84 93.6" stroke="rgba(27, 196, 10, 0.48)" stroke-width="1.5"></path>
        <path d="M963.06 -83.39L1152.68 -77.41" stroke="rgba(27, 196, 10, 0.48)" stroke-width="1.5"></path>
        <path d="M963.06 -83.39L1161.67 92.96" stroke="rgba(27, 196, 10, 0.48)" stroke-width="1.5"></path>
        <path d="M963.06 -83.39L941.93 207.11" stroke="rgba(27, 196, 10, 0.48)" stroke-width="1.5"></path>
        <path d="M963.06 -83.39L1261.71 -76.81" stroke="rgba(27, 196, 10, 0.48)" stroke-width="1.5"></path>
        <path d="M1002.84 93.6L1002.84 93.6" stroke="rgba(27, 196, 10, 0.48)" stroke-width="1.5"></path>
        <path d="M1002.84 93.6L941.93 207.11" stroke="rgba(27, 196, 10, 0.48)" stroke-width="1.5"></path>
        <path d="M1002.84 93.6L1161.67 92.96" stroke="rgba(27, 196, 10, 0.48)" stroke-width="1.5"></path>
        <path d="M1002.84 93.6L1123.65 233.84" stroke="rgba(27, 196, 10, 0.48)" stroke-width="1.5"></path>
        <path d="M941.93 207.11L941.93 207.11" stroke="rgba(27, 196, 10, 0.48)" stroke-width="1.5"></path>
        <path d="M941.93 207.11L807.63 219.86" stroke="rgba(27, 196, 10, 0.48)" stroke-width="1.5"></path>
        <path d="M966.24 679.99L966.24 679.99" stroke="rgba(27, 196, 10, 0.48)" stroke-width="1.5"></path>
        <path d="M966.24 679.99L1123.51 673.07" stroke="rgba(27, 196, 10, 0.48)" stroke-width="1.5"></path>
        <path d="M966.24 679.99L830.91 554.62" stroke="rgba(27, 196, 10, 0.48)" stroke-width="1.5"></path>
        <path d="M1152.68 -77.41L1152.68 -77.41" stroke="rgba(27, 196, 10, 0.48)" stroke-width="1.5"></path>
        <path d="M1152.68 -77.41L1261.71 -76.81" stroke="rgba(27, 196, 10, 0.48)" stroke-width="1.5"></path>
        <path d="M1152.68 -77.41L1161.67 92.96" stroke="rgba(27, 196, 10, 0.48)" stroke-width="1.5"></path>
        <path d="M1161.67 92.96L1161.67 92.96" stroke="rgba(27, 196, 10, 0.48)" stroke-width="1.5"></path>
        <path d="M1161.67 92.96L1123.65 233.84" stroke="rgba(27, 196, 10, 0.48)" stroke-width="1.5"></path>
        <path d="M1161.67 92.96L1307.82 106.4" stroke="rgba(27, 196, 10, 0.48)" stroke-width="1.5"></path>
        <path d="M1123.65 233.84L1123.65 233.84" stroke="rgba(27, 196, 10, 0.48)" stroke-width="1.5"></path>
        <path d="M1123.65 233.84L1155.01 358.47" stroke="rgba(27, 196, 10, 0.48)" stroke-width="1.5"></path>
        <path d="M1123.65 233.84L941.93 207.11" stroke="rgba(27, 196, 10, 0.48)" stroke-width="1.5"></path>
        <path d="M1123.65 233.84L1306.87 189.52" stroke="rgba(27, 196, 10, 0.48)" stroke-width="1.5"></path>
        <path d="M1155.01 358.47L1155.01 358.47" stroke="rgba(27, 196, 10, 0.48)" stroke-width="1.5"></path>
        <path d="M1155.01 358.47L1254.82 410.59" stroke="rgba(27, 196, 10, 0.48)" stroke-width="1.5"></path>
        <path d="M1136.24 529.14L1136.24 529.14" stroke="rgba(27, 196, 10, 0.48)" stroke-width="1.5"></path>
        <path d="M1136.24 529.14L1123.51 673.07" stroke="rgba(27, 196, 10, 0.48)" stroke-width="1.5"></path>
        <path d="M1136.24 529.14L1254.82 410.59" stroke="rgba(27, 196, 10, 0.48)" stroke-width="1.5"></path>
        <path d="M1136.24 529.14L1155.01 358.47" stroke="rgba(27, 196, 10, 0.48)" stroke-width="1.5"></path>
        <path d="M1123.51 673.07L1123.51 673.07" stroke="rgba(27, 196, 10, 0.48)" stroke-width="1.5"></path>
        <path d="M1123.51 673.07L1307.61 707.68" stroke="rgba(27, 196, 10, 0.48)" stroke-width="1.5"></path>
        <path d="M1123.51 673.07L1311.61 505.73" stroke="rgba(27, 196, 10, 0.48)" stroke-width="1.5"></path>
        <path d="M1123.51 673.07L1254.82 410.59" stroke="rgba(27, 196, 10, 0.48)" stroke-width="1.5"></path>
        <path d="M1261.71 -76.81L1261.71 -76.81" stroke="rgba(27, 196, 10, 0.48)" stroke-width="1.5"></path>
        <path d="M1261.71 -76.81L1389.53 -109.62" stroke="rgba(27, 196, 10, 0.48)" stroke-width="1.5"></path>
        <path d="M1261.71 -76.81L1307.82 106.4" stroke="rgba(27, 196, 10, 0.48)" stroke-width="1.5"></path>
        <path d="M1261.71 -76.81L1161.67 92.96" stroke="rgba(27, 196, 10, 0.48)" stroke-width="1.5"></path>
        <path d="M1261.71 -76.81L1433.91 110.94" stroke="rgba(27, 196, 10, 0.48)" stroke-width="1.5"></path>
        <path d="M1261.71 -76.81L1306.87 189.52" stroke="rgba(27, 196, 10, 0.48)" stroke-width="1.5"></path>
        <path d="M1307.82 106.4L1307.82 106.4" stroke="rgba(27, 196, 10, 0.48)" stroke-width="1.5"></path>
        <path d="M1307.82 106.4L1306.87 189.52" stroke="rgba(27, 196, 10, 0.48)" stroke-width="1.5"></path>
        <path d="M1307.82 106.4L1433.91 110.94" stroke="rgba(27, 196, 10, 0.48)" stroke-width="1.5"></path>
        <path d="M1306.87 189.52L1306.87 189.52" stroke="rgba(27, 196, 10, 0.48)" stroke-width="1.5"></path>
        <path d="M1306.87 189.52L1438.72 251.13" stroke="rgba(27, 196, 10, 0.48)" stroke-width="1.5"></path>
        <path d="M1306.87 189.52L1433.91 110.94" stroke="rgba(27, 196, 10, 0.48)" stroke-width="1.5"></path>
        <path d="M1306.87 189.52L1161.67 92.96" stroke="rgba(27, 196, 10, 0.48)" stroke-width="1.5"></path>
        <path d="M1254.82 410.59L1254.82 410.59" stroke="rgba(27, 196, 10, 0.48)" stroke-width="1.5"></path>
        <path d="M1254.82 410.59L1311.61 505.73" stroke="rgba(27, 196, 10, 0.48)" stroke-width="1.5"></path>
        <path d="M1254.82 410.59L1396.24 376.72" stroke="rgba(27, 196, 10, 0.48)" stroke-width="1.5"></path>
        <path d="M1254.82 410.59L1402.74 502.82" stroke="rgba(27, 196, 10, 0.48)" stroke-width="1.5"></path>
        <path d="M1254.82 410.59L1123.65 233.84" stroke="rgba(27, 196, 10, 0.48)" stroke-width="1.5"></path>
        <path d="M1311.61 505.73L1311.61 505.73" stroke="rgba(27, 196, 10, 0.48)" stroke-width="1.5"></path>
        <path d="M1311.61 505.73L1402.74 502.82" stroke="rgba(27, 196, 10, 0.48)" stroke-width="1.5"></path>
        <path d="M1311.61 505.73L1396.24 376.72" stroke="rgba(27, 196, 10, 0.48)" stroke-width="1.5"></path>
        <path d="M1311.61 505.73L1136.24 529.14" stroke="rgba(27, 196, 10, 0.48)" stroke-width="1.5"></path>
        <path d="M1311.61 505.73L1307.61 707.68" stroke="rgba(27, 196, 10, 0.48)" stroke-width="1.5"></path>
        <path d="M1311.61 505.73L1155.01 358.47" stroke="rgba(27, 196, 10, 0.48)" stroke-width="1.5"></path>
        <path d="M1307.61 707.68L1307.61 707.68" stroke="rgba(27, 196, 10, 0.48)" stroke-width="1.5"></path>
        <path d="M1307.61 707.68L1402.74 502.82" stroke="rgba(27, 196, 10, 0.48)" stroke-width="1.5"></path>
        <path d="M1307.61 707.68L1549.84 709.9" stroke="rgba(27, 196, 10, 0.48)" stroke-width="1.5"></path>
        <path d="M1307.61 707.68L1136.24 529.14" stroke="rgba(27, 196, 10, 0.48)" stroke-width="1.5"></path>
        <path d="M1389.53 -109.62L1389.53 -109.62" stroke="rgba(27, 196, 10, 0.48)" stroke-width="1.5"></path>
        <path d="M1389.53 -109.62L1433.91 110.94" stroke="rgba(27, 196, 10, 0.48)" stroke-width="1.5"></path>
        <path d="M1389.53 -109.62L1307.82 106.4" stroke="rgba(27, 196, 10, 0.48)" stroke-width="1.5"></path>
        <path d="M1389.53 -109.62L1152.68 -77.41" stroke="rgba(27, 196, 10, 0.48)" stroke-width="1.5"></path>
        <path d="M1433.91 110.94L1433.91 110.94" stroke="rgba(27, 196, 10, 0.48)" stroke-width="1.5"></path>
        <path d="M1433.91 110.94L1438.72 251.13" stroke="rgba(27, 196, 10, 0.48)" stroke-width="1.5"></path>
        <path d="M1433.91 110.94L1583.35 109.23" stroke="rgba(27, 196, 10, 0.48)" stroke-width="1.5"></path>
        <path d="M1438.72 251.13L1438.72 251.13" stroke="rgba(27, 196, 10, 0.48)" stroke-width="1.5"></path>
        <path d="M1438.72 251.13L1558.16 218.64" stroke="rgba(27, 196, 10, 0.48)" stroke-width="1.5"></path>
        <path d="M1438.72 251.13L1396.24 376.72" stroke="rgba(27, 196, 10, 0.48)" stroke-width="1.5"></path>
        <path d="M1396.24 376.72L1396.24 376.72" stroke="rgba(27, 196, 10, 0.48)" stroke-width="1.5"></path>
        <path d="M1396.24 376.72L1402.74 502.82" stroke="rgba(27, 196, 10, 0.48)" stroke-width="1.5"></path>
        <path d="M1402.74 502.82L1402.74 502.82" stroke="rgba(27, 196, 10, 0.48)" stroke-width="1.5"></path>
        <path d="M1402.74 502.82L1552.32 506.92" stroke="rgba(27, 196, 10, 0.48)" stroke-width="1.5"></path>
        <path d="M1583.35 109.23L1583.35 109.23" stroke="rgba(27, 196, 10, 0.48)" stroke-width="1.5"></path>
        <path d="M1583.35 109.23L1558.16 218.64" stroke="rgba(27, 196, 10, 0.48)" stroke-width="1.5"></path>
        <path d="M1583.35 109.23L1438.72 251.13" stroke="rgba(27, 196, 10, 0.48)" stroke-width="1.5"></path>
        <path d="M1583.35 109.23L1543.94 364.33" stroke="rgba(27, 196, 10, 0.48)" stroke-width="1.5"></path>
        <path d="M1558.16 218.64L1558.16 218.64" stroke="rgba(27, 196, 10, 0.48)" stroke-width="1.5"></path>
        <path d="M1558.16 218.64L1543.94 364.33" stroke="rgba(27, 196, 10, 0.48)" stroke-width="1.5"></path>
        <path d="M1558.16 218.64L1433.91 110.94" stroke="rgba(27, 196, 10, 0.48)" stroke-width="1.5"></path>
        <path d="M1558.16 218.64L1396.24 376.72" stroke="rgba(27, 196, 10, 0.48)" stroke-width="1.5"></path>
        <path d="M1558.16 218.64L1306.87 189.52" stroke="rgba(27, 196, 10, 0.48)" stroke-width="1.5"></path>
        <path d="M1543.94 364.33L1543.94 364.33" stroke="rgba(27, 196, 10, 0.48)" stroke-width="1.5"></path>
        <path d="M1543.94 364.33L1552.32 506.92" stroke="rgba(27, 196, 10, 0.48)" stroke-width="1.5"></path>
        <path d="M1552.32 506.92L1552.32 506.92" stroke="rgba(27, 196, 10, 0.48)" stroke-width="1.5"></path>
        <path d="M1552.32 506.92L1549.84 709.9" stroke="rgba(27, 196, 10, 0.48)" stroke-width="1.5"></path>
        <path d="M1552.32 506.92L1396.24 376.72" stroke="rgba(27, 196, 10, 0.48)" stroke-width="1.5"></path>
        <path d="M1552.32 506.92L1311.61 505.73" stroke="rgba(27, 196, 10, 0.48)" stroke-width="1.5"></path>
        <path d="M1549.84 709.9L1549.84 709.9" stroke="rgba(27, 196, 10, 0.48)" stroke-width="1.5"></path>
        <path d="M1549.84 709.9L1402.74 502.82" stroke="rgba(27, 196, 10, 0.48)" stroke-width="1.5"></path>
        <path d="M1549.84 709.9L1311.61 505.73" stroke="rgba(27, 196, 10, 0.48)" stroke-width="1.5"></path>
        <circle r="5" cx="-45.65" cy="359.79" fill="rgba(27, 196, 10, 0.48)"></circle>
        <circle r="5" cx="-70.29" cy="490.67" fill="rgba(27, 196, 10, 0.48)"></circle>
        <circle r="5" cx="-56.08" cy="711.36" fill="rgba(27, 196, 10, 0.48)"></circle>
        <circle r="5" cx="73.37" cy="550.54" fill="rgba(27, 196, 10, 0.48)"></circle>
        <circle r="5" cx="53.55" cy="661.93" fill="rgba(27, 196, 10, 0.48)"></circle>
        <circle r="5" cx="213.93" cy="402.65" fill="rgba(27, 196, 10, 0.48)"></circle>
        <circle r="5" cx="239.19" cy="521.14" fill="rgba(27, 196, 10, 0.48)"></circle>
        <circle r="5" cx="222.17" cy="649.53" fill="rgba(27, 196, 10, 0.48)"></circle>
        <circle r="5" cx="340.02" cy="360.97" fill="rgba(27, 196, 10, 0.48)"></circle>
        <circle r="5" cx="355.87" cy="510.06" fill="rgba(27, 196, 10, 0.48)"></circle>
        <circle r="5" cx="400" cy="697.26" fill="rgba(27, 196, 10, 0.48)"></circle>
        <circle r="5" cx="520.5" cy="402.05" fill="rgba(27, 196, 10, 0.48)"></circle>
        <circle r="5" cx="534.14" cy="519.76" fill="rgba(27, 196, 10, 0.48)"></circle>
        <circle r="5" cx="521.2" cy="671.35" fill="rgba(27, 196, 10, 0.48)"></circle>
        <circle r="5" cx="677.63" cy="230.71" fill="rgba(27, 196, 10, 0.48)"></circle>
        <circle r="5" cx="652.01" cy="397.96" fill="rgba(27, 196, 10, 0.48)"></circle>
        <circle r="5" cx="704.75" cy="546" fill="rgba(27, 196, 10, 0.48)"></circle>
        <circle r="5" cx="682.25" cy="687.16" fill="rgba(27, 196, 10, 0.48)"></circle>
        <circle r="5" cx="807.63" cy="219.86" fill="rgba(27, 196, 10, 0.48)"></circle>
        <circle r="5" cx="843" cy="345.02" fill="rgba(27, 196, 10, 0.48)"></circle>
        <circle r="5" cx="830.91" cy="554.62" fill="rgba(27, 196, 10, 0.48)"></circle>
        <circle r="5" cx="827.13" cy="643.84" fill="rgba(27, 196, 10, 0.48)"></circle>
        <circle r="5" cx="963.06" cy="-83.39" fill="rgba(27, 196, 10, 0.48)"></circle>
        <circle r="5" cx="1002.84" cy="93.6" fill="rgba(27, 196, 10, 0.48)"></circle>
        <circle r="5" cx="941.93" cy="207.11" fill="rgba(27, 196, 10, 0.48)"></circle>
        <circle r="5" cx="966.24" cy="679.99" fill="rgba(27, 196, 10, 0.48)"></circle>
        <circle r="5" cx="1152.68" cy="-77.41" fill="rgba(27, 196, 10, 0.48)"></circle>
        <circle r="5" cx="1161.67" cy="92.96" fill="rgba(27, 196, 10, 0.48)"></circle>
        <circle r="5" cx="1123.65" cy="233.84" fill="rgba(27, 196, 10, 0.48)"></circle>
        <circle r="5" cx="1155.01" cy="358.47" fill="rgba(27, 196, 10, 0.48)"></circle>
        <circle r="5" cx="1136.24" cy="529.14" fill="rgba(27, 196, 10, 0.48)"></circle>
        <circle r="5" cx="1123.51" cy="673.07" fill="rgba(27, 196, 10, 0.48)"></circle>
        <circle r="5" cx="1261.71" cy="-76.81" fill="rgba(27, 196, 10, 0.48)"></circle>
        <circle r="5" cx="1307.82" cy="106.4" fill="rgba(27, 196, 10, 0.48)"></circle>
        <circle r="5" cx="1306.87" cy="189.52" fill="rgba(27, 196, 10, 0.48)"></circle>
        <circle r="5" cx="1254.82" cy="410.59" fill="rgba(27, 196, 10, 0.48)"></circle>
        <circle r="5" cx="1311.61" cy="505.73" fill="rgba(27, 196, 10, 0.48)"></circle>
        <circle r="5" cx="1307.61" cy="707.68" fill="rgba(27, 196, 10, 0.48)"></circle>
        <circle r="5" cx="1389.53" cy="-109.62" fill="rgba(27, 196, 10, 0.48)"></circle>
        <circle r="5" cx="1433.91" cy="110.94" fill="rgba(27, 196, 10, 0.48)"></circle>
        <circle r="5" cx="1438.72" cy="251.13" fill="rgba(27, 196, 10, 0.48)"></circle>
        <circle r="5" cx="1396.24" cy="376.72" fill="rgba(27, 196, 10, 0.48)"></circle>
        <circle r="5" cx="1402.74" cy="502.82" fill="rgba(27, 196, 10, 0.48)"></circle>
        <circle r="5" cx="1583.35" cy="109.23" fill="rgba(27, 196, 10, 0.48)"></circle>
        <circle r="5" cx="1558.16" cy="218.64" fill="rgba(27, 196, 10, 0.48)"></circle>
        <circle r="5" cx="1543.94" cy="364.33" fill="rgba(27, 196, 10, 0.48)"></circle>
        <circle r="5" cx="1552.32" cy="506.92" fill="rgba(27, 196, 10, 0.48)"></circle>
        <circle r="5" cx="1549.84" cy="709.9" fill="rgba(27, 196, 10, 0.48)"></circle>
        <path d="M-107.72 686.39L-107.72 686.39" stroke="hsl(123.30000000000001, 94.8%, 58.4%)" stroke-width="1.5"></path>
        <path d="M-107.72 686.39L-110.67 526.97" stroke="hsl(123.30000000000001, 94.8%, 58.4%)" stroke-width="1.5"></path>
        <path d="M-107.72 686.39L78.15 691.87" stroke="hsl(123.30000000000001, 94.8%, 58.4%)" stroke-width="1.5"></path>
        <path d="M409.01 695.4L409.01 695.4" stroke="hsl(123.30000000000001, 94.8%, 58.4%)" stroke-width="1.5"></path>
        <path d="M409.01 695.4L250.27 680.57" stroke="hsl(123.30000000000001, 94.8%, 58.4%)" stroke-width="1.5"></path>
        <path d="M409.01 695.4L397.68 515.11" stroke="hsl(123.30000000000001, 94.8%, 58.4%)" stroke-width="1.5"></path>
        <path d="M409.01 695.4L244.78 546.37" stroke="hsl(123.30000000000001, 94.8%, 58.4%)" stroke-width="1.5"></path>
        <path d="M409.01 695.4L561.05 523.08" stroke="hsl(123.30000000000001, 94.8%, 58.4%)" stroke-width="1.5"></path>
        <path d="M409.01 695.4L644.71 651.42" stroke="hsl(123.30000000000001, 94.8%, 58.4%)" stroke-width="1.5"></path>
        <path d="M1246.7 651.18L1246.7 651.18" stroke="hsl(123.30000000000001, 94.8%, 58.4%)" stroke-width="1.5"></path>
        <path d="M1246.7 651.18L1112.83 679.2" stroke="hsl(123.30000000000001, 94.8%, 58.4%)" stroke-width="1.5"></path>
        <path d="M1246.7 651.18L1306.37 524.1" stroke="hsl(123.30000000000001, 94.8%, 58.4%)" stroke-width="1.5"></path>
        <path d="M1246.7 651.18L1141.67 554.35" stroke="hsl(123.30000000000001, 94.8%, 58.4%)" stroke-width="1.5"></path>
        <path d="M1246.7 651.18L1446.1 672.97" stroke="hsl(123.30000000000001, 94.8%, 58.4%)" stroke-width="1.5"></path>
        <path d="M1246.7 651.18L993.41 693.72" stroke="hsl(123.30000000000001, 94.8%, 58.4%)" stroke-width="1.5"></path>
        <path d="M1246.7 651.18L1245.79 352.66" stroke="hsl(123.30000000000001, 94.8%, 58.4%)" stroke-width="1.5"></path>
        <path d="M1391.57 86.05L1391.57 86.05" stroke="hsl(123.30000000000001, 94.8%, 58.4%)" stroke-width="1.5"></path>
        <path d="M1391.57 86.05L1454.07 219.68" stroke="hsl(123.30000000000001, 94.8%, 58.4%)" stroke-width="1.5"></path>
        <path d="M1391.57 86.05L1554.61 109.65" stroke="hsl(123.30000000000001, 94.8%, 58.4%)" stroke-width="1.5"></path>
        <path d="M1391.57 86.05L1276.28 -57.14" stroke="hsl(123.30000000000001, 94.8%, 58.4%)" stroke-width="1.5"></path>
        <path d="M1391.57 86.05L1288.6 243.03" stroke="hsl(123.30000000000001, 94.8%, 58.4%)" stroke-width="1.5"></path>
        <path d="M1391.57 86.05L1556.44 190.99" stroke="hsl(123.30000000000001, 94.8%, 58.4%)" stroke-width="1.5"></path>
        <path d="M1556.44 190.99L1556.44 190.99" stroke="hsl(123.30000000000001, 94.8%, 58.4%)" stroke-width="1.5"></path>
        <path d="M1556.44 190.99L1554.61 109.65" stroke="hsl(123.30000000000001, 94.8%, 58.4%)" stroke-width="1.5"></path>
        <path d="M1556.44 190.99L1454.07 219.68" stroke="hsl(123.30000000000001, 94.8%, 58.4%)" stroke-width="1.5"></path>
        <path d="M-110.67 526.97L-110.67 526.97" stroke="hsl(123.30000000000001, 94.8%, 58.4%)" stroke-width="1.5"></path>
        <path d="M-110.67 526.97L94.71 544.2" stroke="hsl(123.30000000000001, 94.8%, 58.4%)" stroke-width="1.5"></path>
        <path d="M-110.67 526.97L78.15 691.87" stroke="hsl(123.30000000000001, 94.8%, 58.4%)" stroke-width="1.5"></path>
        <path d="M94.71 544.2L94.71 544.2" stroke="hsl(123.30000000000001, 94.8%, 58.4%)" stroke-width="1.5"></path>
        <path d="M94.71 544.2L78.15 691.87" stroke="hsl(123.30000000000001, 94.8%, 58.4%)" stroke-width="1.5"></path>
        <path d="M94.71 544.2L244.78 546.37" stroke="hsl(123.30000000000001, 94.8%, 58.4%)" stroke-width="1.5"></path>
        <path d="M94.71 544.2L250.27 680.57" stroke="hsl(123.30000000000001, 94.8%, 58.4%)" stroke-width="1.5"></path>
        <path d="M78.15 691.87L78.15 691.87" stroke="hsl(123.30000000000001, 94.8%, 58.4%)" stroke-width="1.5"></path>
        <path d="M78.15 691.87L250.27 680.57" stroke="hsl(123.30000000000001, 94.8%, 58.4%)" stroke-width="1.5"></path>
        <path d="M244.78 546.37L244.78 546.37" stroke="hsl(123.30000000000001, 94.8%, 58.4%)" stroke-width="1.5"></path>
        <path d="M244.78 546.37L250.27 680.57" stroke="hsl(123.30000000000001, 94.8%, 58.4%)" stroke-width="1.5"></path>
        <path d="M244.78 546.37L397.68 515.11" stroke="hsl(123.30000000000001, 94.8%, 58.4%)" stroke-width="1.5"></path>
        <path d="M244.78 546.37L78.15 691.87" stroke="hsl(123.30000000000001, 94.8%, 58.4%)" stroke-width="1.5"></path>
        <path d="M250.27 680.57L250.27 680.57" stroke="hsl(123.30000000000001, 94.8%, 58.4%)" stroke-width="1.5"></path>
        <path d="M397.68 515.11L397.68 515.11" stroke="hsl(123.30000000000001, 94.8%, 58.4%)" stroke-width="1.5"></path>
        <path d="M397.68 515.11L561.05 523.08" stroke="hsl(123.30000000000001, 94.8%, 58.4%)" stroke-width="1.5"></path>
        <path d="M397.68 515.11L250.27 680.57" stroke="hsl(123.30000000000001, 94.8%, 58.4%)" stroke-width="1.5"></path>
        <path d="M397.68 515.11L653.09 504.01" stroke="hsl(123.30000000000001, 94.8%, 58.4%)" stroke-width="1.5"></path>
        <path d="M561.05 523.08L561.05 523.08" stroke="hsl(123.30000000000001, 94.8%, 58.4%)" stroke-width="1.5"></path>
        <path d="M561.05 523.08L653.09 504.01" stroke="hsl(123.30000000000001, 94.8%, 58.4%)" stroke-width="1.5"></path>
        <path d="M653.09 504.01L653.09 504.01" stroke="hsl(123.30000000000001, 94.8%, 58.4%)" stroke-width="1.5"></path>
        <path d="M653.09 504.01L644.71 651.42" stroke="hsl(123.30000000000001, 94.8%, 58.4%)" stroke-width="1.5"></path>
        <path d="M653.09 504.01L810.96 547.87" stroke="hsl(123.30000000000001, 94.8%, 58.4%)" stroke-width="1.5"></path>
        <path d="M653.09 504.01L827.28 406.62" stroke="hsl(123.30000000000001, 94.8%, 58.4%)" stroke-width="1.5"></path>
        <path d="M653.09 504.01L816.11 658.26" stroke="hsl(123.30000000000001, 94.8%, 58.4%)" stroke-width="1.5"></path>
        <path d="M644.71 651.42L644.71 651.42" stroke="hsl(123.30000000000001, 94.8%, 58.4%)" stroke-width="1.5"></path>
        <path d="M644.71 651.42L561.05 523.08" stroke="hsl(123.30000000000001, 94.8%, 58.4%)" stroke-width="1.5"></path>
        <path d="M644.71 651.42L816.11 658.26" stroke="hsl(123.30000000000001, 94.8%, 58.4%)" stroke-width="1.5"></path>
        <path d="M644.71 651.42L810.96 547.87" stroke="hsl(123.30000000000001, 94.8%, 58.4%)" stroke-width="1.5"></path>
        <path d="M827.28 406.62L827.28 406.62" stroke="hsl(123.30000000000001, 94.8%, 58.4%)" stroke-width="1.5"></path>
        <path d="M827.28 406.62L967.27 406.86" stroke="hsl(123.30000000000001, 94.8%, 58.4%)" stroke-width="1.5"></path>
        <path d="M827.28 406.62L810.96 547.87" stroke="hsl(123.30000000000001, 94.8%, 58.4%)" stroke-width="1.5"></path>
        <path d="M810.96 547.87L810.96 547.87" stroke="hsl(123.30000000000001, 94.8%, 58.4%)" stroke-width="1.5"></path>
        <path d="M810.96 547.87L816.11 658.26" stroke="hsl(123.30000000000001, 94.8%, 58.4%)" stroke-width="1.5"></path>
        <path d="M816.11 658.26L816.11 658.26" stroke="hsl(123.30000000000001, 94.8%, 58.4%)" stroke-width="1.5"></path>
        <path d="M967.27 406.86L967.27 406.86" stroke="hsl(123.30000000000001, 94.8%, 58.4%)" stroke-width="1.5"></path>
        <path d="M967.27 406.86L952.71 511.86" stroke="hsl(123.30000000000001, 94.8%, 58.4%)" stroke-width="1.5"></path>
        <path d="M967.27 406.86L1091.02 257.83" stroke="hsl(123.30000000000001, 94.8%, 58.4%)" stroke-width="1.5"></path>
        <path d="M967.27 406.86L810.96 547.87" stroke="hsl(123.30000000000001, 94.8%, 58.4%)" stroke-width="1.5"></path>
        <path d="M967.27 406.86L1141.67 554.35" stroke="hsl(123.30000000000001, 94.8%, 58.4%)" stroke-width="1.5"></path>
        <path d="M952.71 511.86L952.71 511.86" stroke="hsl(123.30000000000001, 94.8%, 58.4%)" stroke-width="1.5"></path>
        <path d="M952.71 511.86L810.96 547.87" stroke="hsl(123.30000000000001, 94.8%, 58.4%)" stroke-width="1.5"></path>
        <path d="M952.71 511.86L827.28 406.62" stroke="hsl(123.30000000000001, 94.8%, 58.4%)" stroke-width="1.5"></path>
        <path d="M952.71 511.86L993.41 693.72" stroke="hsl(123.30000000000001, 94.8%, 58.4%)" stroke-width="1.5"></path>
        <path d="M952.71 511.86L1141.67 554.35" stroke="hsl(123.30000000000001, 94.8%, 58.4%)" stroke-width="1.5"></path>
        <path d="M952.71 511.86L816.11 658.26" stroke="hsl(123.30000000000001, 94.8%, 58.4%)" stroke-width="1.5"></path>
        <path d="M993.41 693.72L993.41 693.72" stroke="hsl(123.30000000000001, 94.8%, 58.4%)" stroke-width="1.5"></path>
        <path d="M993.41 693.72L1112.83 679.2" stroke="hsl(123.30000000000001, 94.8%, 58.4%)" stroke-width="1.5"></path>
        <path d="M1091.02 257.83L1091.02 257.83" stroke="hsl(123.30000000000001, 94.8%, 58.4%)" stroke-width="1.5"></path>
        <path d="M1091.02 257.83L1245.79 352.66" stroke="hsl(123.30000000000001, 94.8%, 58.4%)" stroke-width="1.5"></path>
        <path d="M1091.02 257.83L1288.6 243.03" stroke="hsl(123.30000000000001, 94.8%, 58.4%)" stroke-width="1.5"></path>
        <path d="M1091.02 257.83L952.71 511.86" stroke="hsl(123.30000000000001, 94.8%, 58.4%)" stroke-width="1.5"></path>
        <path d="M1141.67 554.35L1141.67 554.35" stroke="hsl(123.30000000000001, 94.8%, 58.4%)" stroke-width="1.5"></path>
        <path d="M1141.67 554.35L1112.83 679.2" stroke="hsl(123.30000000000001, 94.8%, 58.4%)" stroke-width="1.5"></path>
        <path d="M1141.67 554.35L1306.37 524.1" stroke="hsl(123.30000000000001, 94.8%, 58.4%)" stroke-width="1.5"></path>
        <path d="M1141.67 554.35L993.41 693.72" stroke="hsl(123.30000000000001, 94.8%, 58.4%)" stroke-width="1.5"></path>
        <path d="M1112.83 679.2L1112.83 679.2" stroke="hsl(123.30000000000001, 94.8%, 58.4%)" stroke-width="1.5"></path>
        <path d="M1112.83 679.2L952.71 511.86" stroke="hsl(123.30000000000001, 94.8%, 58.4%)" stroke-width="1.5"></path>
        <path d="M1112.83 679.2L1306.37 524.1" stroke="hsl(123.30000000000001, 94.8%, 58.4%)" stroke-width="1.5"></path>
        <path d="M1112.83 679.2L816.11 658.26" stroke="hsl(123.30000000000001, 94.8%, 58.4%)" stroke-width="1.5"></path>
        <path d="M1276.28 -57.14L1276.28 -57.14" stroke="hsl(123.30000000000001, 94.8%, 58.4%)" stroke-width="1.5"></path>
        <path d="M1276.28 -57.14L1288.6 243.03" stroke="hsl(123.30000000000001, 94.8%, 58.4%)" stroke-width="1.5"></path>
        <path d="M1276.28 -57.14L1593.17 -81.35" stroke="hsl(123.30000000000001, 94.8%, 58.4%)" stroke-width="1.5"></path>
        <path d="M1276.28 -57.14L1554.61 109.65" stroke="hsl(123.30000000000001, 94.8%, 58.4%)" stroke-width="1.5"></path>
        <path d="M1276.28 -57.14L1454.07 219.68" stroke="hsl(123.30000000000001, 94.8%, 58.4%)" stroke-width="1.5"></path>
        <path d="M1276.28 -57.14L1091.02 257.83" stroke="hsl(123.30000000000001, 94.8%, 58.4%)" stroke-width="1.5"></path>
        <path d="M1288.6 243.03L1288.6 243.03" stroke="hsl(123.30000000000001, 94.8%, 58.4%)" stroke-width="1.5"></path>
        <path d="M1288.6 243.03L1245.79 352.66" stroke="hsl(123.30000000000001, 94.8%, 58.4%)" stroke-width="1.5"></path>
        <path d="M1288.6 243.03L1454.07 219.68" stroke="hsl(123.30000000000001, 94.8%, 58.4%)" stroke-width="1.5"></path>
        <path d="M1245.79 352.66L1245.79 352.66" stroke="hsl(123.30000000000001, 94.8%, 58.4%)" stroke-width="1.5"></path>
        <path d="M1306.37 524.1L1306.37 524.1" stroke="hsl(123.30000000000001, 94.8%, 58.4%)" stroke-width="1.5"></path>
        <path d="M1306.37 524.1L1245.79 352.66" stroke="hsl(123.30000000000001, 94.8%, 58.4%)" stroke-width="1.5"></path>
        <path d="M1306.37 524.1L1446.1 672.97" stroke="hsl(123.30000000000001, 94.8%, 58.4%)" stroke-width="1.5"></path>
        <path d="M1454.07 219.68L1454.07 219.68" stroke="hsl(123.30000000000001, 94.8%, 58.4%)" stroke-width="1.5"></path>
        <path d="M1454.07 219.68L1554.61 109.65" stroke="hsl(123.30000000000001, 94.8%, 58.4%)" stroke-width="1.5"></path>
        <path d="M1454.07 219.68L1444.68 372.93" stroke="hsl(123.30000000000001, 94.8%, 58.4%)" stroke-width="1.5"></path>
        <path d="M1444.68 372.93L1444.68 372.93" stroke="hsl(123.30000000000001, 94.8%, 58.4%)" stroke-width="1.5"></path>
        <path d="M1444.68 372.93L1573.05 359.38" stroke="hsl(123.30000000000001, 94.8%, 58.4%)" stroke-width="1.5"></path>
        <path d="M1444.68 372.93L1245.79 352.66" stroke="hsl(123.30000000000001, 94.8%, 58.4%)" stroke-width="1.5"></path>
        <path d="M1444.68 372.93L1288.6 243.03" stroke="hsl(123.30000000000001, 94.8%, 58.4%)" stroke-width="1.5"></path>
        <path d="M1446.1 672.97L1446.1 672.97" stroke="hsl(123.30000000000001, 94.8%, 58.4%)" stroke-width="1.5"></path>
        <path d="M1446.1 672.97L1578.08 710.48" stroke="hsl(123.30000000000001, 94.8%, 58.4%)" stroke-width="1.5"></path>
        <path d="M1446.1 672.97L1539.76 555.52" stroke="hsl(123.30000000000001, 94.8%, 58.4%)" stroke-width="1.5"></path>
        <path d="M1593.17 -81.35L1593.17 -81.35" stroke="hsl(123.30000000000001, 94.8%, 58.4%)" stroke-width="1.5"></path>
        <path d="M1593.17 -81.35L1554.61 109.65" stroke="hsl(123.30000000000001, 94.8%, 58.4%)" stroke-width="1.5"></path>
        <path d="M1554.61 109.65L1554.61 109.65" stroke="hsl(123.30000000000001, 94.8%, 58.4%)" stroke-width="1.5"></path>
        <path d="M1573.05 359.38L1573.05 359.38" stroke="hsl(123.30000000000001, 94.8%, 58.4%)" stroke-width="1.5"></path>
        <path d="M1573.05 359.38L1556.44 190.99" stroke="hsl(123.30000000000001, 94.8%, 58.4%)" stroke-width="1.5"></path>
        <path d="M1573.05 359.38L1454.07 219.68" stroke="hsl(123.30000000000001, 94.8%, 58.4%)" stroke-width="1.5"></path>
        <path d="M1573.05 359.38L1539.76 555.52" stroke="hsl(123.30000000000001, 94.8%, 58.4%)" stroke-width="1.5"></path>
        <path d="M1573.05 359.38L1554.61 109.65" stroke="hsl(123.30000000000001, 94.8%, 58.4%)" stroke-width="1.5"></path>
        <path d="M1539.76 555.52L1539.76 555.52" stroke="hsl(123.30000000000001, 94.8%, 58.4%)" stroke-width="1.5"></path>
        <path d="M1539.76 555.52L1578.08 710.48" stroke="hsl(123.30000000000001, 94.8%, 58.4%)" stroke-width="1.5"></path>
        <path d="M1539.76 555.52L1444.68 372.93" stroke="hsl(123.30000000000001, 94.8%, 58.4%)" stroke-width="1.5"></path>
        <path d="M1539.76 555.52L1306.37 524.1" stroke="hsl(123.30000000000001, 94.8%, 58.4%)" stroke-width="1.5"></path>
        <path d="M1578.08 710.48L1578.08 710.48" stroke="hsl(123.30000000000001, 94.8%, 58.4%)" stroke-width="1.5"></path>
        <path d="M1578.08 710.48L1306.37 524.1" stroke="hsl(123.30000000000001, 94.8%, 58.4%)" stroke-width="1.5"></path>
        <path d="M1578.08 710.48L1246.7 651.18" stroke="hsl(123.30000000000001, 94.8%, 58.4%)" stroke-width="1.5"></path>
        <path d="M1578.08 710.48L1573.05 359.38" stroke="hsl(123.30000000000001, 94.8%, 58.4%)" stroke-width="1.5"></path>
        <circle r="25" cx="-107.72" cy="686.39" fill="url(#SvgjsRadialGradient1758)"></circle>
        <circle r="25" cx="409.01" cy="695.4" fill="url(#SvgjsRadialGradient1758)"></circle>
        <circle r="25" cx="1246.7" cy="651.18" fill="url(#SvgjsRadialGradient1758)"></circle>
        <circle r="25" cx="1391.57" cy="86.05" fill="url(#SvgjsRadialGradient1758)"></circle>
        <circle r="25" cx="1556.44" cy="190.99" fill="url(#SvgjsRadialGradient1758)"></circle>
        <circle r="5" cx="-110.67" cy="526.97" fill="#83ef89"></circle>
        <circle r="5" cx="94.71" cy="544.2" fill="#83ef89"></circle>
        <circle r="5" cx="78.15" cy="691.87" fill="#83ef89"></circle>
        <circle r="5" cx="244.78" cy="546.37" fill="#83ef89"></circle>
        <circle r="5" cx="250.27" cy="680.57" fill="#83ef89"></circle>
        <circle r="5" cx="397.68" cy="515.11" fill="#83ef89"></circle>
        <circle r="5" cx="561.05" cy="523.08" fill="#83ef89"></circle>
        <circle r="5" cx="653.09" cy="504.01" fill="#83ef89"></circle>
        <circle r="5" cx="644.71" cy="651.42" fill="#83ef89"></circle>
        <circle r="5" cx="827.28" cy="406.62" fill="#83ef89"></circle>
        <circle r="5" cx="810.96" cy="547.87" fill="#83ef89"></circle>
        <circle r="5" cx="816.11" cy="658.26" fill="#83ef89"></circle>
        <circle r="5" cx="967.27" cy="406.86" fill="#83ef89"></circle>
        <circle r="5" cx="952.71" cy="511.86" fill="#83ef89"></circle>
        <circle r="5" cx="993.41" cy="693.72" fill="#83ef89"></circle>
        <circle r="5" cx="1091.02" cy="257.83" fill="#83ef89"></circle>
        <circle r="5" cx="1141.67" cy="554.35" fill="#83ef89"></circle>
        <circle r="5" cx="1112.83" cy="679.2" fill="#83ef89"></circle>
        <circle r="5" cx="1276.28" cy="-57.14" fill="#83ef89"></circle>
        <circle r="5" cx="1288.6" cy="243.03" fill="#83ef89"></circle>
        <circle r="5" cx="1245.79" cy="352.66" fill="#83ef89"></circle>
        <circle r="5" cx="1306.37" cy="524.1" fill="#83ef89"></circle>
        <circle r="5" cx="1454.07" cy="219.68" fill="#83ef89"></circle>
        <circle r="5" cx="1444.68" cy="372.93" fill="#83ef89"></circle>
        <circle r="5" cx="1446.1" cy="672.97" fill="#83ef89"></circle>
        <circle r="5" cx="1593.17" cy="-81.35" fill="#83ef89"></circle>
        <circle r="5" cx="1554.61" cy="109.65" fill="#83ef89"></circle>
        <circle r="5" cx="1573.05" cy="359.38" fill="#83ef89"></circle>
        <circle r="5" cx="1539.76" cy="555.52" fill="#83ef89"></circle>
        <circle r="5" cx="1578.08" cy="710.48" fill="#83ef89"></circle>
    </g>
    <defs>
        <mask id="SvgjsMask1756">
            <rect width="1450" height="600" fill="#ffffff"></rect>
        </mask>
        <linearGradient x1="0%" y1="50%" x2="100%" y2="50%" gradientUnits="userSpaceOnUse" id="SvgjsLinearGradient1757">
            <stop stop-color="#0e2a47" offset="0"></stop>
            <stop stop-color="rgba(0, 0, 0, 1)" offset="1"></stop>
        </linearGradient>
        <radialGradient id="SvgjsRadialGradient1758">
            <stop stop-color="#ffffff" offset="0.1"></stop>
            <stop stop-color="rgba(6, 223, 18, 1)" offset="0.2"></stop>
            <stop stop-color="rgba(6, 223, 18, 0)" offset="1"></stop>
        </radialGradient>
    </defs>
</svg>